<svg width="220" height="267" viewBox="0 0 220 267" fill="none" xmlns="http://www.w3.org/2000/svg">
<path d="M0 76.8525C0 71.3297 4.47715 66.8525 10 66.8525H39.2358C44.3604 66.8525 49.3996 68.1653 53.8729 70.6656L95.3637 93.8568C104.459 98.9407 115.541 98.9409 124.637 93.8575L166.135 70.6649C170.608 68.165 175.646 66.8525 180.771 66.8525H210C215.523 66.8525 220 71.3297 220 76.8525V246.853C220 257.898 211.046 266.853 200 266.853H20C8.9543 266.853 0 257.898 0 246.853V76.8525Z" fill="#0F1F48"/>
<path d="M180 82C180 41.1309 148.884 8 110.5 8C72.1162 8 41 41.1309 41 82" stroke="#0F1F48" stroke-width="16"/>
<rect x="147.185" y="99" width="39.1578" height="133.465" rx="19.5789" transform="rotate(28.57 147.185 99)" fill="#FFEAEA"/>
<path fill-rule="evenodd" clip-rule="evenodd" d="M142.767 110.278C140.798 111.855 139.103 113.841 137.821 116.195L121.577 146.026H162.886C163.117 146.026 163.261 145.776 163.146 145.576L142.767 110.278Z" fill="#FFB5B5"/>
<path fill-rule="evenodd" clip-rule="evenodd" d="M148.842 177.837L144.512 185.789L128.237 202.638C128.071 202.81 127.781 202.728 127.729 202.495L121.169 173.09C121.122 172.88 121.305 172.69 121.516 172.73L148.842 177.837Z" fill="#E59797"/>
<path fill-rule="evenodd" clip-rule="evenodd" d="M136.666 200.198L127.748 216.575H101.638C101.395 216.575 101.253 216.3 101.393 216.102L124.395 183.504C124.515 183.335 124.766 183.335 124.886 183.504L136.666 200.198Z" fill="#FFB5B5"/>
<path fill-rule="evenodd" clip-rule="evenodd" d="M156.315 164.113L153.359 169.542H129.956C129.725 169.542 129.581 169.292 129.696 169.092L144.183 144C144.299 143.8 144.587 143.8 144.703 144L156.315 164.113Z" fill="#FFB5B5"/>
<path fill-rule="evenodd" clip-rule="evenodd" d="M171.446 136.327L152.147 133.452C151.919 133.418 151.813 133.149 151.957 132.968L168.856 111.703C174.847 117.682 176.464 127.111 172.211 134.921L171.446 136.327Z" fill="#E69797"/>
<path fill-rule="evenodd" clip-rule="evenodd" d="M104.2 177.938L121.192 146.734L142.25 172.68C142.399 172.863 142.288 173.138 142.055 173.167L104.2 177.938Z" fill="#E59797"/>
<path d="M47.3633 135.376C42.1921 125.88 45.6984 113.989 55.1949 108.818V108.818C64.6913 103.647 76.5818 107.153 81.753 116.649L126.854 199.474C132.025 208.97 128.519 220.86 119.022 226.032V226.032C109.526 231.203 97.6354 227.697 92.4642 218.2L47.3633 135.376Z" fill="#FF7171"/>
</svg>
